#!OML:ASF I:\Random Stuff\random\construction\7_22_03\Session 2\subj1.ASF
:FULLY-SPECIFIED
:DEGREES
958
root 5.50496 17.4128 2.11323 346.964 86.6439 342.198
lowerback 4.98629 1.9333 1.64935
upperback -1.56724 2.70224 0.20688
thorax -4.34884 1.30027 -0.943288
lowerneck -18.2136 1.54126 2.23171
upperneck 22.4523 1.84269 -0.55874
head 10.2078 1.05136 -0.298163
rclavicle 1.02001e-014 -1.68967e-015
rhumerus -34.7765 -2.72359 -78.1413
rradius 31.1068
rwrist -9.89051
rhand -20.8256 16.9444
rfingers 7.12502
rthumb 5.54276 -12.9631
lclavicle 1.02001e-014 -1.68967e-015
lhumerus -37.736 7.61027 77.2561
lradius 39.5528
lwrist 52.7553
lhand -20.8717 63.9493
lfingers 7.12502
lthumb 5.49821 -93.858
rfemur -10.8406 3.64167 21.9339
rtibia 27.0389
rfoot -18.6851 -8.51351
rtoes -17.4333
lfemur -14.8094 -6.52309 -18.7611
ltibia 32.2918
lfoot -20.9119 2.36295
ltoes -20.6965
959
root 5.50965 17.4446 2.13449 347.226 86.6484 342.424
lowerback 4.4939 1.95019 1.50208
upperback -1.69669 2.70887 0.217332
thorax -4.2116 1.3094 -0.834409
lowerneck -18.0371 1.58504 2.47681
upperneck 22.5239 1.89619 -0.762957
head 10.206 1.076 -0.404428
rclavicle -7.46685e-015 4.57205e-015
rhumerus -34.4108 -3.26915 -77.9896
rradius 30.8016
rwrist -9.52801
rhand -20.8914 17.7596
rfingers 7.12502
rthumb 5.47924 -12.1496
lclavicle -7.46685e-015 4.57205e-015
lhumerus -37.3968 8.31452 76.7913
lradius 38.9511
lwrist 52.0368
lhand -20.7688 63.7611
lfingers 7.12502
lthumb 5.59754 -93.6671
rfemur -10.1319 4.85092 22.097
rtibia 25.7243
rfoot -17.8591 -9.61862
rtoes -17.2294
lfemur -14.2858 -7.71582 -18.7768
ltibia 31.3561
lfoot -20.579 3.80618
ltoes -21.7149
960
root 5.51068 17.4681 2.15387 348.073 86.7183 343.268
lowerback 4.05285 1.90486 1.29614
upperback -1.79431 2.63114 0.231989
thorax -4.07483 1.27822 -0.683584
lowerneck -17.8288 1.68043 2.75709
upperneck 22.5212 2.00878 -0.958818
head 10.1733 1.13105 -0.505904
rclavicle -1.78347e-014 7.15625e-015
rhumerus -33.9225 -3.74903 -77.849
rradius 30.3692
rwrist -9.12305
rhand -20.9535 18.5571
rfingers 7.12502
rthumb 5.41924 -11.3536
lclavicle -1.78347e-014 7.15625e-015
lhumerus -37.1689 8.79417 76.3884
lradius 38.5121
lwrist 51.4469
lhand -21.5262 63.8308
lfingers 7.12502
lthumb 4.86627 -93.7549
rfemur -9.49708 5.94372 22.1888
rtibia 24.6349
rfoot -17.1722 -10.6073
rtoes -16.9719
lfemur -13.8535 -8.7949 -18.8394
ltibia 30.6188
lfoot -20.3452 4.99688
ltoes -22.0911
961
root 5.50983 17.4827 2.17083 347.509 86.8158 342.734
lowerback 3.6829 1.84101 1.22172
upperback -1.8472 2.53795 0.248825
thorax -3.92606 1.23587 -0.605379
lowerneck -17.787 1.76582 2.88951
upperneck 22.6044 2.10323 -0.986525
head 10.1995 1.18468 -0.524482
rclavicle 2.39629e-014 -1.09332e-015
rhumerus -33.3752 -4.18985 -77.7364
rradius 29.9497
rwrist -8.78769
rhand -21.1839 18.7357
rfingers 7.12502
rthumb 5.19682 -11.1805
lclavicle 2.39629e-014 -1.09332e-015
lhumerus -37.0032 8.92042 76.0955
lradius 38.3098
lwrist 51.1476
lhand -21.3199 63.7703
lfingers 7.12502
lthumb 5.06549 -93.6897
rfemur -8.95501 6.73962 22.3353
rtibia 23.7904
rfoot -16.65 -11.3912
rtoes -17.0909
lfemur -13.4868 -9.71518 -18.8166
ltibia 30.0408
lfoot -20.1732 5.89687
ltoes -22.0697
962
root 5.50754 17.4925 2.18738 346.266 86.9381 341.516
lowerback 3.36977 1.7788 1.20426
upperback -1.86914 2.45037 0.25955
thorax -3.7744 1.19459 -0.567894
lowerneck -17.9871 1.82967 3.00998
upperneck 22.84 2.16804 -1.02754
head 10.3261 1.22168 -0.547693
rclavicle -1.64308e-014 -7.45443e-015
rhumerus -32.7554 -4.66173 -77.6295
rradius 29.5128
rwrist -8.46322
rhand -21.5304 18.6536
rfingers 7.12502
rthumb 4.86218 -11.2706
lclavicle -1.64308e-014 -7.45443e-015
lhumerus -36.7463 8.91627 75.8468
lradius 38.1144
lwrist 51.0326
lhand -21.3124 63.823
lfingers 7.12502
lthumb 5.07267 -93.7422
rfemur -8.55122 7.17064 22.4808
rtibia 23.1527
rfoot -16.3084 -11.8833
rtoes -17.2701
lfemur -13.2184 -10.4116 -18.7437
ltibia 29.6062
lfoot -20.0786 6.43259
ltoes -21.811
